<svg width="18" height="20" viewBox="0 0 18 20" fill="none" xmlns="http://www.w3.org/2000/svg">
<g clip-path="url(#clip0_138_40)">
<path d="M17.0312 6.25H0.46875C0.209883 6.25 0 6.04012 0 5.78125V4.375C0 3.33945 0.839453 2.5 1.875 2.5H3.75V0.46875C3.75 0.209883 3.95988 0 4.21875 0H5.78125C6.04012 0 6.25 0.209883 6.25 0.46875V2.5H11.25V0.46875C11.25 0.209883 11.4599 0 11.7188 0H13.2812C13.5401 0 13.75 0.209883 13.75 0.46875V2.5H15.625C16.6605 2.5 17.5 3.33945 17.5 4.375V5.78125C17.5 6.04012 17.2901 6.25 17.0312 6.25ZM0.46875 7.5H17.0312C17.2901 7.5 17.5 7.70988 17.5 7.96875V18.125C17.5 19.1605 16.6605 20 15.625 20H1.875C0.839453 20 0 19.1605 0 18.125V7.96875C0 7.70988 0.209883 7.5 0.46875 7.5ZM13.4881 11.2479L12.3878 10.1386C12.2055 9.95484 11.9087 9.95363 11.7249 10.136L7.58281 14.2447L5.78672 12.4341C5.60441 12.2503 5.30758 12.2491 5.12379 12.4314L4.01453 13.5318C3.83074 13.7141 3.82953 14.0109 4.01188 14.1947L7.23848 17.4474C7.42078 17.6312 7.71758 17.6324 7.90137 17.4501L13.4855 11.9108C13.6693 11.7285 13.6705 11.4317 13.4881 11.2479V11.2479Z" fill="#2286A2"/>
</g>
<defs>
<clipPath id="clip0_138_40">
<rect width="17.5" height="20" fill="white"/>
</clipPath>
</defs>
</svg>
