<svg width="27" height="20" viewBox="0 0 27 20" fill="none" xmlns="http://www.w3.org/2000/svg">
<path d="M26.041 5.83333H22.9227L22.0561 3.66667C21.1654 1.43906 19.0399 0 16.6404 0H10.0259C7.62689 0 5.50085 1.43906 4.60971 3.66667L3.74304 5.83333H0.625331C0.218561 5.83333 -0.0798769 6.21563 0.0190814 6.6099L0.331581 7.8599C0.400852 8.13802 0.650852 8.33333 0.937831 8.33333H1.98314C1.28366 8.94427 0.833144 9.83229 0.833144 10.8333V13.3333C0.833144 14.1729 1.15398 14.9307 1.66648 15.5172V18.3333C1.66648 19.2536 2.41283 20 3.33314 20H4.99981C5.92012 20 6.66648 19.2536 6.66648 18.3333V16.6667H19.9998V18.3333C19.9998 19.2536 20.7462 20 21.6665 20H23.3331C24.2535 20 24.9998 19.2536 24.9998 18.3333V15.5172C25.5123 14.9312 25.8331 14.1734 25.8331 13.3333V10.8333C25.8331 9.83229 25.3826 8.94427 24.6837 8.33333H25.729C26.016 8.33333 26.266 8.13802 26.3352 7.8599L26.6477 6.6099C26.7462 6.21563 26.4477 5.83333 26.041 5.83333ZM7.7045 4.90469C8.08419 3.95573 9.00346 3.33333 10.0259 3.33333H16.6404C17.6628 3.33333 18.5821 3.95573 18.9618 4.90469L19.9998 7.5H6.66648L7.7045 4.90469ZM4.99981 13.3229C3.99981 13.3229 3.33314 12.6583 3.33314 11.6615C3.33314 10.6646 3.99981 10 4.99981 10C5.99981 10 7.49981 11.4953 7.49981 12.4922C7.49981 13.4891 5.99981 13.3229 4.99981 13.3229ZM21.6665 13.3229C20.6665 13.3229 19.1665 13.4891 19.1665 12.4922C19.1665 11.4953 20.6665 10 21.6665 10C22.6665 10 23.3331 10.6646 23.3331 11.6615C23.3331 12.6583 22.6665 13.3229 21.6665 13.3229V13.3229Z" fill="#2286A2"/>
</svg>
