<svg width="23" height="20" viewBox="0 0 23 20" fill="none" xmlns="http://www.w3.org/2000/svg">
<g clip-path="url(#clip0_138_47)">
<path d="M22.5 8.4375V9.0625C22.5 9.58027 22.0803 10 21.5625 10H21.25L20.23 17.1402C20.098 18.0639 19.3069 18.75 18.3738 18.75H4.12617C3.19309 18.75 2.40199 18.0639 2.27 17.1402L1.25 10H0.9375C0.419727 10 0 9.58027 0 9.0625V8.4375C0 7.91972 0.419727 7.5 0.9375 7.5H3.56801L7.7391 1.7648C8.14516 1.20652 8.92688 1.08304 9.48523 1.4891C10.0436 1.89515 10.167 2.67691 9.76094 3.23523L6.65926 7.5H15.8407L12.7391 3.23519C12.333 2.67691 12.4565 1.89511 13.0148 1.48906C13.573 1.083 14.3549 1.20644 14.7609 1.76476L18.932 7.5H21.5625C22.0803 7.5 22.5 7.91972 22.5 8.4375ZM12.1875 15.3125V10.9375C12.1875 10.4197 11.7678 10 11.25 10C10.7322 10 10.3125 10.4197 10.3125 10.9375V15.3125C10.3125 15.8303 10.7322 16.25 11.25 16.25C11.7678 16.25 12.1875 15.8303 12.1875 15.3125ZM16.5625 15.3125V10.9375C16.5625 10.4197 16.1428 10 15.625 10C15.1072 10 14.6875 10.4197 14.6875 10.9375V15.3125C14.6875 15.8303 15.1072 16.25 15.625 16.25C16.1428 16.25 16.5625 15.8303 16.5625 15.3125ZM7.8125 15.3125V10.9375C7.8125 10.4197 7.39277 10 6.875 10C6.35723 10 5.9375 10.4197 5.9375 10.9375V15.3125C5.9375 15.8303 6.35723 16.25 6.875 16.25C7.39277 16.25 7.8125 15.8303 7.8125 15.3125Z" fill="#2286A2"/>
</g>
<defs>
<clipPath id="clip0_138_47">
<rect width="22.5" height="20" fill="white"/>
</clipPath>
</defs>
</svg>
