<svg width="20" height="20" viewBox="0 0 20 20" fill="none" xmlns="http://www.w3.org/2000/svg">
<path d="M20 13.9286V18.9286C20.0003 19.0694 19.9729 19.2089 19.9192 19.339C19.8654 19.4692 19.7865 19.5874 19.687 19.687C19.5874 19.7865 19.4692 19.8654 19.339 19.9192C19.2089 19.9729 19.0694 20.0003 18.9286 20H13.9286C12.9737 20 12.496 18.8437 13.1696 18.1696L14.7857 16.5536L10 11.7679L5.21295 16.558L6.83036 18.1696C7.50402 18.8437 7.02634 20 6.07143 20H1.07143C0.930631 20.0003 0.791147 19.9729 0.660996 19.9192C0.530845 19.8654 0.412591 19.7865 0.31303 19.687C0.213468 19.5874 0.13456 19.4692 0.0808413 19.339C0.0271222 19.2089 -0.000349964 19.0694 3.36535e-06 18.9286V13.9286C3.36535e-06 12.9732 1.15581 12.4955 1.83036 13.1696L3.44598 14.7857L8.23482 10L3.44554 5.20982L1.83036 6.83036C1.15625 7.50447 3.36535e-06 7.02679 3.36535e-06 6.07143V1.07143C-0.000349964 0.930631 0.0271222 0.791147 0.0808413 0.660996C0.13456 0.530845 0.213468 0.412591 0.31303 0.313029C0.412591 0.213468 0.530845 0.134561 0.660996 0.0808414C0.791147 0.0271222 0.930631 -0.000349964 1.07143 3.36535e-06H6.07143C7.02634 3.36535e-06 7.50402 1.15625 6.83036 1.83036L5.21429 3.44643L10 8.23214L14.7871 3.44197L13.1696 1.83036C12.496 1.15625 12.9737 3.36535e-06 13.9286 3.36535e-06H18.9286C19.0694 -0.000349964 19.2089 0.0271222 19.339 0.0808414C19.4692 0.134561 19.5874 0.213468 19.687 0.313029C19.7865 0.412591 19.8654 0.530845 19.9192 0.660996C19.9729 0.791147 20.0003 0.930631 20 1.07143V6.07143C20 7.02679 18.8442 7.50447 18.1696 6.83036L16.554 5.21429L11.7652 10L16.5545 14.7902L18.1696 13.1741C18.8437 12.4955 20 12.9732 20 13.9286Z" fill="#2286A2"/>
</svg>
