<svg width="20" height="20" viewBox="0 0 20 20" fill="none" xmlns="http://www.w3.org/2000/svg">
<g clip-path="url(#clip0_138_31)">
<path d="M19.4293 14.1328L15.0543 12.2578C14.8674 12.1782 14.6597 12.1614 14.4624 12.21C14.2652 12.2586 14.089 12.37 13.9605 12.5273L12.023 14.8945C8.98232 13.4609 6.53524 11.0138 5.10156 7.97305L7.46875 6.03554C7.62644 5.90729 7.73804 5.73116 7.78668 5.53381C7.83531 5.33645 7.81832 5.12863 7.73828 4.94179L5.86328 0.566794C5.77544 0.365391 5.62007 0.200952 5.42397 0.101832C5.22787 0.00271234 5.00332 -0.0248758 4.78906 0.0238249L0.726563 0.961325C0.519988 1.00903 0.335682 1.12534 0.203725 1.29128C0.0717677 1.45722 -4.75863e-05 1.66299 2.36571e-08 1.875C2.36571e-08 11.8945 8.12109 20 18.125 20C18.3371 20.0001 18.5429 19.9284 18.709 19.7964C18.875 19.6644 18.9913 19.4801 19.0391 19.2734L19.9766 15.2109C20.0249 14.9956 19.9968 14.7702 19.8969 14.5734C19.797 14.3766 19.6317 14.2208 19.4293 14.1328V14.1328Z" fill="#2286A2"/>
</g>
<defs>
<clipPath id="clip0_138_31">
<rect width="20" height="20" fill="white"/>
</clipPath>
</defs>
</svg>
