<svg width="20" height="20" viewBox="0 0 20 20" fill="none" xmlns="http://www.w3.org/2000/svg">
<g clip-path="url(#clip0_138_29)">
<path d="M0 2.1875V11.5625C0 12.0803 0.419727 12.5 0.9375 12.5H4.0625C4.58027 12.5 5 12.0803 5 11.5625V2.1875C5 1.66973 4.58027 1.25 4.0625 1.25H0.9375C0.419727 1.25 0 1.66973 0 2.1875ZM1.5625 10C1.5625 9.48223 1.98223 9.0625 2.5 9.0625C3.01777 9.0625 3.4375 9.48223 3.4375 10C3.4375 10.5178 3.01777 10.9375 2.5 10.9375C1.98223 10.9375 1.5625 10.5178 1.5625 10ZM12.1875 20C11.3991 20 11.0357 18.4651 10.8621 17.7424C10.6587 16.8961 10.4484 16.0209 9.87016 15.4415C8.60184 14.1711 7.93645 12.5522 6.38902 11.0231C6.34499 10.9796 6.31003 10.9278 6.28617 10.8706C6.26232 10.8135 6.25003 10.7522 6.25004 10.6903V2.33988C6.25004 2.08438 6.45484 1.8759 6.71031 1.87121C7.32871 1.85988 8.14367 1.51656 8.76699 1.23926C10.0074 0.687422 11.5511 0.000664063 13.4373 0H13.5484C15.2194 0 17.1954 0.0161328 17.9927 1.1616C18.3205 1.63258 18.4007 2.21762 18.2329 2.90504C18.87 3.57117 19.2119 4.81375 18.8728 5.82523C19.5581 6.74055 19.6205 8.01789 19.2364 8.92949L19.2407 8.93379C19.7052 9.40055 20.0033 10.1548 20 10.8555C19.9939 12.0412 18.9782 13.125 17.6737 13.125H13.7001C13.9855 14.232 15 15.1614 15 16.8183C15 19.6875 13.125 20 12.1875 20Z" fill="#2286A2"/>
</g>
<defs>
<clipPath id="clip0_138_29">
<rect width="20" height="20" fill="white"/>
</clipPath>
</defs>
</svg>
