<svg width="23" height="20" viewBox="0 0 23 20" fill="none" xmlns="http://www.w3.org/2000/svg">
<g clip-path="url(#clip0_138_25)">
<path d="M19.3696 12.5H8.11954L8.37072 13.75H18.6718C19.2629 13.75 19.701 14.3086 19.57 14.8953L19.3583 15.8436C20.0756 16.198 20.5702 16.9464 20.5702 17.8125C20.5702 19.0313 19.5908 20.0173 18.3894 19.9998C17.2449 19.983 16.3036 19.0376 16.2727 17.8729C16.2558 17.2367 16.5063 16.6601 16.9176 16.25H8.87189C9.27013 16.6471 9.51754 17.2002 9.51754 17.8125C9.51754 19.0552 8.49947 20.0559 7.26595 19.9976C6.17067 19.9458 5.2799 19.045 5.22233 17.9305C5.17789 17.0698 5.62283 16.3112 6.29885 15.9154L3.60297 2.5H0.921053C0.412363 2.5 0 2.08027 0 1.5625V0.9375C0 0.419727 0.412363 0 0.921053 0H4.85583C5.29337 0 5.6705 0.31332 5.75819 0.749609L6.10996 2.5H21.1838C21.7749 2.5 22.2129 3.05863 22.082 3.64527L20.2678 11.7703C20.1725 12.1971 19.7997 12.5 19.3696 12.5ZM15.6579 6.5625H13.8158V5C13.8158 4.6548 13.5409 4.375 13.2018 4.375H12.5877C12.2486 4.375 11.9737 4.6548 11.9737 5V6.5625H10.1316C9.79244 6.5625 9.51754 6.8423 9.51754 7.1875V7.8125C9.51754 8.1577 9.79244 8.4375 10.1316 8.4375H11.9737V10C11.9737 10.3452 12.2486 10.625 12.5877 10.625H13.2018C13.5409 10.625 13.8158 10.3452 13.8158 10V8.4375H15.6579C15.997 8.4375 16.2719 8.1577 16.2719 7.8125V7.1875C16.2719 6.8423 15.997 6.5625 15.6579 6.5625Z" fill="#2286A2"/>
</g>
<defs>
<clipPath id="clip0_138_25">
<rect width="22.1053" height="20" fill="white"/>
</clipPath>
</defs>
</svg>
