<svg width="23" height="20" viewBox="0 0 23 20" fill="none" xmlns="http://www.w3.org/2000/svg">
<g clip-path="url(#clip0_138_55)">
<path d="M22.3709 11.4099L19.5418 16.2597C19.3216 16.6371 19.0064 16.9502 18.6275 17.1679C18.2486 17.3855 17.8193 17.5 17.3824 17.5H1.75879C1.03523 17.5 0.584414 16.7151 0.948984 16.0901L3.77805 11.2403C3.99821 10.8629 4.31345 10.5498 4.69235 10.3321C5.07124 10.1145 5.50056 10 5.9375 10H21.5611C22.2846 10 22.7355 10.7849 22.3709 11.4099ZM5.9375 8.75H18.75V6.875C18.75 5.83945 17.9105 5 16.875 5H10.625L8.125 2.5H1.875C0.839453 2.5 0 3.33945 0 4.375V15.2362L2.69832 10.6105C3.36773 9.46289 4.60895 8.75 5.9375 8.75Z" fill="#2286A2"/>
</g>
<defs>
<clipPath id="clip0_138_55">
<rect width="22.5" height="20" fill="white"/>
</clipPath>
</defs>
</svg>
