<svg width="22" height="16" viewBox="0 0 22 16" fill="none" xmlns="http://www.w3.org/2000/svg">
<path d="M19.3333 2.66667H11.3333L8.66667 0H2C1.46957 0 0.960859 0.210714 0.585786 0.585787C0.210714 0.960859 0 1.46957 0 2L0 14C0 14.5304 0.210714 15.0391 0.585786 15.4142C0.960859 15.7893 1.46957 16 2 16H19.3333C19.8638 16 20.3725 15.7893 20.7475 15.4142C21.1226 15.0391 21.3333 14.5304 21.3333 14V4.66667C21.3333 4.13623 21.1226 3.62753 20.7475 3.25245C20.3725 2.87738 19.8638 2.66667 19.3333 2.66667ZM14.9792 9.66667C14.9792 9.84348 14.9089 10.013 14.7839 10.1381C14.6589 10.2631 14.4893 10.3333 14.3125 10.3333H11.6458V13C11.6458 13.1768 11.5756 13.3464 11.4506 13.4714C11.3255 13.5964 11.156 13.6667 10.9792 13.6667H10.3125C10.1357 13.6667 9.96612 13.5964 9.84109 13.4714C9.71607 13.3464 9.64583 13.1768 9.64583 13V10.3333H6.97917C6.80235 10.3333 6.63279 10.2631 6.50776 10.1381C6.38274 10.013 6.3125 9.84348 6.3125 9.66667V9C6.3125 8.82319 6.38274 8.65362 6.50776 8.5286C6.63279 8.40357 6.80235 8.33333 6.97917 8.33333H9.64583V5.66667C9.64583 5.48986 9.71607 5.32029 9.84109 5.19526C9.96612 5.07024 10.1357 5 10.3125 5H10.9792C11.156 5 11.3255 5.07024 11.4506 5.19526C11.5756 5.32029 11.6458 5.48986 11.6458 5.66667V8.33333H14.3125C14.4893 8.33333 14.6589 8.40357 14.7839 8.5286C14.9089 8.65362 14.9792 8.82319 14.9792 9V9.66667Z" fill="#2286A2"/>
</svg>
